<svg xmlns="http://www.w3.org/2000/svg" data-name="Layer 1" viewBox="0 0 100 125" x="0px" y="0px">
  <defs>
    <style>.cls-1{fill-rule:evenodd;}</style>
  </defs>
  <title>a</title>
  <path class="cls-1" d="M78.5,16.809a1.194,1.194,0,0,1-2.367-.318,5.419,5.419,0,1,1,5.369,6.15H59.321a1.2,1.2,0,0,1,0-2.4H81.5a3.027,3.027,0,1,0-3-3.436ZM9.689,35.206a1.2,1.2,0,0,1,0,2.395H8.912a1.2,1.2,0,0,1,0-2.395Zm12.561,0a1.2,1.2,0,0,1,0,2.395H14.566a1.2,1.2,0,1,1,0-2.395Zm37.58-3.437a1.194,1.194,0,1,1-2.367-.318,5.419,5.419,0,1,1,5.369,6.15H26.84a1.2,1.2,0,1,1,0-2.395H62.832a3.027,3.027,0,1,0-3-3.437ZM20.264,44.417a1.2,1.2,0,0,1,0,2.395h-.458a1.2,1.2,0,0,1,0-2.395Zm11.41,0a1.2,1.2,0,1,1,0,2.395H25.447a1.2,1.2,0,1,1,0-2.395Zm45.94-3.437a3.029,3.029,0,1,1,3,3.437h-43.2a1.2,1.2,0,1,0,0,2.395h43.2a5.419,5.419,0,1,0-5.369-6.15,1.194,1.194,0,1,0,2.367.318ZM56.054,86.008a3.864,3.864,0,1,0,1.132,2.732,3.852,3.852,0,0,0-1.132-2.732Zm28.283-13.8-8.212,4.741A26.952,26.952,0,0,1,80.391,90.4h9.484a36.366,36.366,0,0,0-5.538-18.184ZM54.519,55.044v9.479a26.965,26.965,0,0,1,10.02,2.4l4.754-8.233a36.405,36.405,0,0,0-14.774-3.644ZM37.351,58.688l4.754,8.234a26.945,26.945,0,0,1,10.019-2.4V55.045a36.388,36.388,0,0,0-14.773,3.643ZM23.641,70.227A36.735,36.735,0,0,1,35.236,59.8l4.737,8.2A27.186,27.186,0,0,0,31.9,75l-8.261-4.77Zm6.878,6.725-8.212-4.741A36.366,36.366,0,0,0,16.769,90.4h9.483a26.943,26.943,0,0,1,4.267-13.443ZM59.092,86.31A6.279,6.279,0,0,0,55.311,82.8l12.2-8.673L59.092,86.31Zm10.36-16.49a27.271,27.271,0,0,0-2.781-1.811l4.737-8.2A36.768,36.768,0,0,1,83,70.227L74.741,75a27.115,27.115,0,0,0-2.26-2.564c-.176-.175-.354-.349-.534-.52l1.37-1.982a1.195,1.195,0,0,0-1.653-1.684L69.452,69.82ZM51.037,82.911,67.388,71.287A24.7,24.7,0,0,0,28.621,91.593a1.2,1.2,0,0,1-1.2,1.2H15.556a1.2,1.2,0,0,1-1.2-1.2,1.088,1.088,0,0,1,.006-.114,38.958,38.958,0,0,1,77.916,0c0,.038,0,.076,0,.114a1.2,1.2,0,0,1-1.2,1.2H79.22a1.2,1.2,0,0,1-1.2-1.2,24.627,24.627,0,0,0-7.234-17.466l-.221-.218L59.459,89.979a6.26,6.26,0,1,1-8.422-7.068ZM20.173,14.638a8.254,8.254,0,0,0-4.632,2.19,7.677,7.677,0,0,0-2.361,5.628,7.918,7.918,0,0,0,7.9,7.9H47.132a7.9,7.9,0,0,0,0-15.8h-.84a6.217,6.217,0,0,0-5.981-4.534,6.305,6.305,0,0,0-1.063.092l-.006,0a10.281,10.281,0,0,0-3.321-3.487,10.226,10.226,0,0,0-15.748,8.007Zm2.378.822c0,.029,0,.078.006.144a1.1,1.1,0,0,1,.01.152,1.2,1.2,0,0,1-1.2,1.2,5.986,5.986,0,0,0-4.171,1.6,5.318,5.318,0,0,0-1.623,3.906,5.521,5.521,0,0,0,5.5,5.5H47.132a5.5,5.5,0,0,0,0-11H45.306v0a1.2,1.2,0,0,1-1.189-1.081,3.821,3.821,0,0,0-3.806-3.45,3.859,3.859,0,0,0-1.225.2,1.2,1.2,0,0,1-1.559-.609,7.835,7.835,0,0,0-14.976,3.221Z" fill="white"/>
</svg>
